<svg viewBox="0 0 13 13" xmlns="http://www.w3.org/2000/svg"><path fill-rule="evenodd" clip-rule="evenodd" d="M7.683 5.5634A3.9873 3.9873 0 008 4c0-2.2091-1.7909-4-4-4-2.2091 0-4 1.7909-4 4 0 2.2091 1.7909 4 4 4a3.9873 3.9873 0 001.5609-.316l1.1273 1.1273a.25.25 0 00.2259.0684l1.2685-.2537c.175-.035.3293.1194.2942.2944l-.207 1.031c-.0351.1749.119.3292.294.2944l1.0337-.206a.25.25 0 01.294.2942l-.2536 1.2696a.25.25 0 00.0684.2258l.1411.1411a.4998.4998 0 00.2828.1414l.99.1414c.66.0943 1.2256-.4714 1.1314-1.1313l-.1415-.99a.4999.4999 0 00-.1414-.2828L7.6829 5.5634zM3.5 5C4.3284 5 5 4.3284 5 3.5S4.3284 2 3.5 2 2 2.6716 2 3.5 2.6716 5 3.5 5z"/></svg>