<?xml version="1.0" encoding="utf-8"?><svg xmlns="http://www.w3.org/2000/svg" xmlns:xlink="http://www.w3.org/1999/xlink"><symbol viewBox="0 0 13 10" id="check" xmlns="http://www.w3.org/2000/svg"><path fill-rule="evenodd" clip-rule="evenodd" d="M12 1.022a1 1 0 01-.001 1.414l-6.53 6.53a1 1 0 01-1.384.03L.825 6.01a1 1 0 01-.028-1.446 1 1 0 011.38-.028l2.201 2.017a.5.5 0 00.691-.015l5.516-5.515a1 1 0 011.414 0z"/></symbol><symbol viewBox="0 0 14 14" id="close" xmlns="http://www.w3.org/2000/svg"><path fill-rule="evenodd" clip-rule="evenodd" d="M1.795.308A1.051 1.051 0 10.308 1.795L5.513 7 .308 12.205a1.052 1.052 0 001.487 1.487L7 8.487l5.205 5.205a1.052 1.052 0 001.487-1.487L8.487 7l5.205-5.205A1.051 1.051 0 1012.205.308L7 5.513 1.795.308z"/></symbol><symbol viewBox="0 0 13 13" id="key" xmlns="http://www.w3.org/2000/svg"><path fill-rule="evenodd" clip-rule="evenodd" d="M7.683 5.563A3.987 3.987 0 008 4a4 4 0 10-4 4 3.987 3.987 0 001.56-.316l1.128 1.127a.25.25 0 00.226.069l1.269-.254a.25.25 0 01.294.294L8.27 9.951a.25.25 0 00.294.295l1.034-.206a.25.25 0 01.293.294l-.253 1.27a.25.25 0 00.068.225l.141.141a.5.5 0 00.283.142l.99.141a1 1 0 001.132-1.131l-.142-.99a.5.5 0 00-.141-.283L7.683 5.563zM3.5 5a1.5 1.5 0 100-3 1.5 1.5 0 000 3z"/></symbol><symbol viewBox="0 0 12 12" id="stop" xmlns="http://www.w3.org/2000/svg"><path fill-rule="evenodd" clip-rule="evenodd" d="M9.536 1.05a1 1 0 011.414 1.415L7.414 6l3.536 3.536a1 1 0 11-1.414 1.414L6 7.414 2.465 10.95A1 1 0 011.05 9.536L4.586 6 1.05 2.465A1 1 0 112.465 1.05L6 4.586 9.535 1.05z"/></symbol></svg>